<?xml version="1.0" encoding="UTF-8" standalone="no"?>
<!-- Generator: Adobe Illustrator 16.0.0, SVG Export Plug-In . SVG Version: 6.00 Build 0)  -->

<svg
   xmlns:dc="http://purl.org/dc/elements/1.1/"
   xmlns:cc="http://creativecommons.org/ns#"
   xmlns:rdf="http://www.w3.org/1999/02/22-rdf-syntax-ns#"
   xmlns:svg="http://www.w3.org/2000/svg"
   xmlns="http://www.w3.org/2000/svg"
   xmlns:sodipodi="http://sodipodi.sourceforge.net/DTD/sodipodi-0.dtd"
   xmlns:inkscape="http://www.inkscape.org/namespaces/inkscape"
   version="1.1"
   id="Capa_1"
   x="0px"
   y="0px"
   width="466.14499"
   height="466.14499"
   viewBox="0 0 466.14501 466.14501"
   xml:space="preserve"
   sodipodi:docname="Unbenannt (1).svg"
   inkscape:version="0.92.4 (5da689c313, 2019-01-14)"><metadata
   id="metadata11"><rdf:RDF><cc:Work
       rdf:about=""><dc:format>image/svg+xml</dc:format><dc:type
         rdf:resource="http://purl.org/dc/dcmitype/StillImage" /><dc:title></dc:title></cc:Work></rdf:RDF></metadata><defs
   id="defs9" /><sodipodi:namedview
   pagecolor="#ffffff"
   bordercolor="#666666"
   borderopacity="1"
   objecttolerance="10"
   gridtolerance="10"
   guidetolerance="10"
   inkscape:pageopacity="0"
   inkscape:pageshadow="2"
   inkscape:window-width="1920"
   inkscape:window-height="1137"
   id="namedview7"
   showgrid="false"
   inkscape:zoom="0.89344871"
   inkscape:cx="132.07249"
   inkscape:cy="176.84283"
   inkscape:window-x="-8"
   inkscape:window-y="-8"
   inkscape:window-maximized="1"
   inkscape:current-layer="g4" />
<g
   transform="matrix(0.18498933,0,0,-0.18498933,-9.3488266,475.34883)"
   id="g4"
   style="fill:#000000;stroke:none">
<path
   d="M 110,1315 V 110 h 1194 c 993,0 1195,2 1205,14 8,10 10,332 9,1202 l -3,1189 -1202,3 -1203,2 z m 1386,1099 c -3,-9 -6,-175 -6,-370 V 1690 H 845 200 v 370 370 h 651 c 590,0 651,-1 645,-16 z m 924,-864 V 670 l -412,2 -413,3 -3,878 -2,877 h 415 415 z M 1490,905 V 215 l -645,-3 -645,-2 v 695 695 l 645,-2 645,-3 z M 2420,395 V 210 h -415 -415 v 185 185 h 415 415 z"
   id="path2"
   inkscape:connector-curvature="0" />
</g>
</svg>
